<svg width="81" height="96" version="1.1" viewBox="0 0 21.431 25.4" xmlns="http://www.w3.org/2000/svg">
 <g fill="#fff">
  <g transform="matrix(.98692 0 0 1.0054 -38.334 29.32)">
   <g transform="matrix(.070278 0 0 -.070278 51.128 -8.5168)">
    <path d="m0 0s-16.626 20.247-55.421 26.814c-37.764 8.81-83.458 45.679-95.179 97.436-13.579 51.27 9.275 104.87 38.488 129.93 29.017 26.315 56.214 30.405 55.665 30.76 0.655-0.786-26.31-5.475-54.588-31.9-28.52-25.205-50.224-78.105-36.459-128.01 11.962-50.391 56.697-85.686 93.235-93.886 8.754-1.347 16.559-3.443 23.395-5.882 25.785-9.144 35.701-20.947 35.701-20.947z" fill="#fff"/>
   </g>
   <g transform="matrix(.070278 0 0 -.070278 48.272 -8.5168)">
    <path d="m0 0s16.626 20.247 55.42 26.814c37.764 8.81 83.458 45.679 95.179 97.436 13.579 51.27-9.275 104.87-38.487 129.93-29.017 26.315-56.215 30.405-55.661 30.76-0.655-0.786 26.31-5.475 54.584-31.9 28.52-25.205 50.228-78.105 36.458-128.01-11.957-50.391-56.696-85.686-93.234-93.886-8.755-1.347-16.559-3.443-23.395-5.882-25.786-9.144-35.702-20.947-35.702-20.947z" fill="#fff"/>
   </g>
   <g transform="matrix(.070278 0 0 -.070278 46.447 -12.652)">
    <path d="m0 0s10.575-3.636 14.082-12.073c4.381-10.542 2.488-19.367 2.488-19.367s-10.596 5.508-14.145 11.224c-4.982 8.024-2.425 20.216-2.425 20.216" fill="#fff"/>
   </g>
   <g transform="matrix(.070278 0 0 -.070278 45.143 -9.3978)">
    <path d="m 0,0 c 0,0 10.689,-3.282 18.493,1.477 9.743,5.946 13.402,14.196 13.402,14.196 0,0 -11.813,1.78 -18.041,-0.753 C 5.104,11.361 0,0 0,0" fill="#fff"/>
   </g>
   <g transform="matrix(.070278 0 0 -.070278 45.29 -13.291)">
    <path d="m0 0s9.591-5.311 11.538-14.05c2.434-10.919-0.895-19.114-0.895-19.114s-9.291 7.118-11.742 13.238c-3.443 8.595 1.099 19.926 1.099 19.926" fill="#fff"/>
   </g>
   <g transform="matrix(.070278 0 0 -.070278 43.478 -10.372)">
    <path d="m 0,0 c 0,0 9.764,-4.99 18.104,-1.722 10.411,4.079 15.35,11.417 15.35,11.417 0,0 -11.096,3.729 -17.543,2.345 C 6.861,10.096 0,0 0,0" fill="#fff"/>
   </g>
   <g transform="matrix(.070278 0 0 -.070278 44.251 -14.12)">
    <path d="m0 0s8.345-6.758 8.742-15.521c0.49-10.954-4.119-18.297-4.119-18.297s-7.753 8.451-9.076 14.778c-1.867 8.877 4.453 19.04 4.453 19.04" fill="#fff"/>
   </g>
   <g transform="matrix(.070278 0 0 -.070278 42.005 -11.611)">
    <path d="m 0,0 c 0,0 8.569,-6.477 17.176,-4.744 10.744,2.168 16.761,8.408 16.761,8.408 0,0 -10.078,5.487 -16.534,5.248 C 8.341,8.575 0,0 0,0" fill="#fff"/>
   </g>
   <g transform="matrix(.070278 0 0 -.070278 43.37 -15.125)">
    <path d="m0 0s6.908-7.941 5.797-16.467c-1.386-10.655-7.081-16.958-7.081-16.958s-6.047 9.477-6.254 15.808c-0.282 8.884 7.538 17.617 7.538 17.617" fill="#fff"/>
   </g>
   <g transform="matrix(.070278 0 0 -.070278 40.775 -13.086)">
    <path d="m 0,0 c 0,0 7.17,-7.708 15.772,-7.499 10.741,0.261 17.602,5.265 17.602,5.265 0,0 -8.788,7.009 -15.059,7.876 C 9.507,6.86 0,0 0,0" fill="#fff"/>
   </g>
   <g transform="matrix(.070278 0 0 -.070278 42.67 -16.265)">
    <path d="m0 0s5.32-8.84 2.793-16.879c-3.151-10.047-9.722-15.161-9.722-15.161s-4.22 10.17-3.338 16.318c1.23 8.624 10.267 15.722 10.267 15.722" fill="#fff"/>
   </g>
   <g transform="matrix(.070278 0 0 -.070278 39.819 -14.738)">
    <path d="m 0,0 c 0,0 5.61,-8.658 13.942,-9.92 10.411,-1.576 17.889,2.083 17.889,2.083 0,0 -7.292,8.261 -13.194,10.164 C 10.343,5.003 0,0 0,0" fill="#fff"/>
   </g>
   <g transform="matrix(.070278 0 0 -.070278 42.187 -17.503)">
    <path d="m0 0s3.625-9.438-0.182-16.766c-4.749-9.162-11.957-12.979-11.957-12.979s-2.344 10.536-0.452 16.316c2.662 8.115 12.591 13.429 12.591 13.429" fill="#fff"/>
   </g>
   <g transform="matrix(.070278 0 0 -.070278 39.176 -16.515)">
    <path d="m0 0s3.938-9.314 11.763-11.949c9.781-3.294 17.623-1.035 17.623-1.035s-5.628 9.213-11.002 12.06c-7.555 3.99-18.384 0.924-18.384 0.924" fill="#fff"/>
   </g>
   <g transform="matrix(.070278 0 0 -.070278 41.921 -18.802)">
    <path d="m0 0s1.894-9.726-3.021-16.149c-6.147-8.037-13.756-10.494-13.756-10.494s-0.469 10.569 2.348 15.825c3.943 7.38 14.429 10.818 14.429 10.818" fill="#fff"/>
   </g>
   <g transform="matrix(.070278 0 0 -.070278 38.847 -18.361)">
    <path d="m0 0s2.219-9.658 9.321-13.535c8.872-4.841 16.832-3.997 16.832-3.997s-3.87 9.85-8.568 13.509c-6.612 5.14-17.585 4.023-17.585 4.023" fill="#fff"/>
   </g>
   <g transform="matrix(.070278 0 0 -.070278 41.884 -20.135)">
    <path d="m0 0s0.173-9.709-5.671-15.075c-7.296-6.706-15.058-7.783-15.058-7.783s1.352 10.275 4.96 14.872c5.067 6.453 15.769 7.986 15.769 7.986" fill="#fff"/>
   </g>
   <g transform="matrix(.070278 0 0 -.070278 38.842 -20.232)">
    <path d="m0 0s0.494-9.7 6.696-14.65c7.741-6.183 15.557-6.722 15.557-6.722s-2.053 10.165-5.966 14.497c-5.505 6.083-16.287 6.875-16.287 6.875" fill="#fff"/>
   </g>
   <g transform="matrix(.070278 0 0 -.070278 42.075 -21.496)">
    <path d="m0 0s-1.482-9.4-8.04-13.583c-8.18-5.232-15.853-4.949-15.853-4.949s3.046 9.687 7.318 13.508c5.978 5.365 16.575 5.024 16.575 5.024" fill="#fff"/>
   </g>
   <g transform="matrix(.070278 0 0 -.070278 39.156 -22.108)">
    <path d="m0 0s-1.175-9.446 3.963-15.278c6.422-7.285 13.875-9.137 13.875-9.137s-0.254 10.161-3.296 15.009c-4.271 6.806-14.542 9.406-14.542 9.406" fill="#fff"/>
   </g>
   <g transform="matrix(.070278 0 0 -.070278 42.502 -22.824)">
    <path d="m0 0s-3.029-8.818-10.068-11.74c-8.792-3.659-16.145-2.078-16.145-2.078s4.593 8.831 9.363 11.791c6.684 4.158 16.85 2.027 16.85 2.027" fill="#fff"/>
   </g>
   <g transform="matrix(.070278 0 0 -.070278 39.788 -23.911)">
    <path d="m 0,0 c 0,0 -2.733,-8.917 1.238,-15.418 4.956,-8.124 11.83,-11.179 11.83,-11.179 0,0 1.488,9.845 -0.621,15.043 C 9.478,-4.256 0,0 0,0" fill="#fff"/>
   </g>
   <g transform="matrix(.070278 0 0 -.070278 43.16 -24.055)">
    <path d="m0 0s-4.424-7.996-11.712-9.617c-9.105-2.035-15.933 0.742-15.933 0.742s5.932 7.741 11.036 9.787c7.162 2.876 16.609-0.912 16.609-0.912" fill="#fff"/>
   </g>
   <g transform="matrix(.070278 0 0 -.070278 40.727 -25.567)">
    <path d="m 0,0 c 0,0 -4.157,-8.142 -1.437,-15.092 3.402,-8.686 9.524,-12.803 9.524,-12.803 0,0 3.109,9.251 1.952,14.626 C 8.417,-5.721 0,0 0,0" fill="#fff"/>
   </g>
   <g transform="matrix(.070278 0 0 -.070278 44.03 -25.152)">
    <path d="m0 0s-5.632-6.963-12.945-7.29c-9.131-0.412-15.253 3.429-15.253 3.429s7.052 6.461 12.32 7.568c7.406 1.555 15.878-3.707 15.878-3.707" fill="#fff"/>
   </g>
   <g transform="matrix(.070278 0 0 -.070278 41.938 -27.025)">
    <path d="m0 0s-5.396-7.149-3.951-14.323c1.808-8.96 7.01-13.975 7.01-13.975s4.576 8.399 4.377 13.781c-0.279 7.56-7.436 14.517-7.436 14.517" fill="#fff"/>
   </g>
   <g transform="matrix(.070278 0 0 -.070278 45.068 -26.071)">
    <path d="m0 0s-6.63-5.761-13.744-4.83c-8.882 1.155-14.138 5.903-14.138 5.903s7.905 5.035 13.183 5.205c7.41 0.245 14.699-6.278 14.699-6.278" fill="#fff"/>
   </g>
   <g transform="matrix(.070278 0 0 -.070278 43.368 -28.235)">
    <path d="m0 0s-6.435-5.982-6.258-13.152c0.216-8.953 4.387-14.682 4.387-14.682s5.847 7.329 6.569 12.558c1.019 7.345-4.698 15.276-4.698 15.276" fill="#fff"/>
   </g>
   <g transform="matrix(.070278 0 0 -.070278 46.243 -26.791)">
    <path d="m0 0s-7.377-4.434-14.078-2.326c-8.383 2.628-12.646 8.104-12.646 8.104s8.489 3.513 13.609 2.779c7.191-1.027 13.115-8.557 13.115-8.557" fill="#fff"/>
   </g>
   <g transform="matrix(.070278 0 0 -.070278 44.971 -29.168)">
    <path d="m0 0s-7.22-4.681-8.272-11.626c-1.314-8.678 1.736-14.917 1.736-14.917s6.891 6.08 8.475 11.001c2.232 6.915-1.939 15.542-1.939 15.542" fill="#fff"/>
   </g>
   <g transform="matrix(.070278 0 0 -.070278 47.505 -27.29)">
    <path d="m 0,0 c 0,0 -7.875,-3.024 -13.984,0.151 -7.644,3.962 -10.821,9.973 -10.821,9.973 0,0 8.784,1.946 13.609,0.368 C -4.44,8.273 0,0 0,0" fill="#fff"/>
   </g>
   <g transform="matrix(.070278 0 0 -.070278 46.706 -28.387)">
    <path d="m 0,0 c 0,0 5.813,-3.284 10.969,-1.512 6.443,2.211 9.629,6.556 9.629,6.556 0,0 -6.651,2.545 -10.61,1.874 C 4.437,5.966 0,0 0,0" fill="#fff"/>
   </g>
   <g transform="matrix(.070278 0 0 -.070278 52.952 -12.652)">
    <path d="m0 0s-10.579-3.636-14.082-12.073c-4.381-10.542-2.488-19.367-2.488-19.367s10.596 5.508 14.145 11.224c4.986 8.024 2.425 20.216 2.425 20.216" fill="#fff"/>
   </g>
   <g transform="matrix(.070278 0 0 -.070278 54.257 -9.3978)">
    <path d="m0 0s-10.693-3.282-18.497 1.477c-9.738 5.946-13.401 14.196-13.401 14.196s11.812 1.78 18.041-0.753c8.75-3.559 13.857-14.92 13.857-14.92" fill="#fff"/>
   </g>
   <g transform="matrix(.070278 0 0 -.070278 54.109 -13.291)">
    <path d="m0 0s-9.595-5.311-11.538-14.05c-2.439-10.919 0.895-19.114 0.895-19.114s9.288 7.118 11.738 13.238c3.443 8.595-1.095 19.926-1.095 19.926" fill="#fff"/>
   </g>
   <g transform="matrix(.070278 0 0 -.070278 55.922 -10.372)">
    <path d="m0 0s-9.764-4.99-18.1-1.722c-10.415 4.079-15.354 11.417-15.354 11.417s11.096 3.729 17.543 2.345c9.05-1.944 15.911-12.04 15.911-12.04" fill="#fff"/>
   </g>
   <g transform="matrix(.070278 0 0 -.070278 55.148 -14.12)">
    <path d="m0 0s-8.349-6.758-8.742-15.521c-0.494-10.954 4.115-18.297 4.115-18.297s7.753 8.451 9.076 14.778c1.867 8.877-4.449 19.04-4.449 19.04" fill="#fff"/>
   </g>
   <g transform="matrix(.070278 0 0 -.070278 57.394 -11.611)">
    <path d="m0 0s-8.572-6.477-17.175-4.744c-10.744 2.168-16.757 8.408-16.757 8.408s10.078 5.487 16.53 5.248c9.066-0.337 17.402-8.912 17.402-8.912" fill="#fff"/>
   </g>
   <g transform="matrix(.070278 0 0 -.070278 56.03 -15.125)">
    <path d="m0 0s-6.912-7.941-5.797-16.467c1.382-10.655 7.081-16.958 7.081-16.958s6.042 9.477 6.249 15.808c0.283 8.884-7.533 17.617-7.533 17.617" fill="#fff"/>
   </g>
   <g transform="matrix(.070278 0 0 -.070278 58.625 -13.086)">
    <path d="m0 0s-7.174-7.708-15.772-7.499c-10.741 0.261-17.606 5.265-17.606 5.265s8.792 7.009 15.058 7.876c8.809 1.218 18.32-5.642 18.32-5.642" fill="#fff"/>
   </g>
   <g transform="matrix(.070278 0 0 -.070278 56.73 -16.265)">
    <path d="m0 0s-5.319-8.84-2.797-16.879c3.151-10.047 9.722-15.161 9.722-15.161s4.221 10.17 3.338 16.318c-1.23 8.624-10.263 15.722-10.263 15.722" fill="#fff"/>
   </g>
   <g transform="matrix(.070278 0 0 -.070278 59.581 -14.738)">
    <path d="m0 0s-5.61-8.658-13.942-9.92c-10.412-1.576-17.89 2.083-17.89 2.083s7.293 8.261 13.195 10.164c8.298 2.676 18.637-2.327 18.637-2.327" fill="#fff"/>
   </g>
   <g transform="matrix(.070278 0 0 -.070278 57.212 -17.503)">
    <path d="m 0,0 c 0,0 -3.629,-9.438 0.178,-16.766 4.749,-9.162 11.957,-12.979 11.957,-12.979 0,0 2.344,10.536 0.452,16.316 C 9.925,-5.314 0,0 0,0" fill="#fff"/>
   </g>
   <g transform="matrix(.070278 0 0 -.070278 60.224 -16.515)">
    <path d="m0 0s-3.942-9.314-11.767-11.949c-9.781-3.294-17.619-1.035-17.619-1.035s5.624 9.213 10.998 12.06c7.555 3.99 18.388 0.924 18.388 0.924" fill="#fff"/>
   </g>
   <g transform="matrix(.070278 0 0 -.070278 57.478 -18.802)">
    <path d="m0 0s-1.893-9.726 3.025-16.149c6.148-8.037 13.753-10.494 13.753-10.494s0.469 10.569-2.344 15.825c-3.947 7.38-14.434 10.818-14.434 10.818" fill="#fff"/>
   </g>
   <g transform="matrix(.070278 0 0 -.070278 60.553 -18.361)">
    <path d="m0 0s-2.223-9.658-9.329-13.535c-8.872-4.841-16.832-3.997-16.832-3.997s3.87 9.85 8.572 13.509c6.609 5.14 17.589 4.023 17.589 4.023" fill="#fff"/>
   </g>
   <g transform="matrix(.070278 0 0 -.070278 57.515 -20.135)">
    <path d="m0 0s-0.169-9.709 5.675-15.075c7.292-6.706 15.054-7.783 15.054-7.783s-1.344 10.275-4.96 14.872c-5.067 6.453-15.769 7.986-15.769 7.986" fill="#fff"/>
   </g>
   <g transform="matrix(.070278 0 0 -.070278 60.557 -20.232)">
    <path d="m0 0s-0.494-9.7-6.692-14.65c-7.746-6.183-15.562-6.722-15.562-6.722s2.054 10.165 5.966 14.497c5.506 6.083 16.288 6.875 16.288 6.875" fill="#fff"/>
   </g>
   <g transform="matrix(.070278 0 0 -.070278 57.325 -21.496)">
    <path d="m0 0s1.482-9.4 8.04-13.583c8.184-5.232 15.853-4.949 15.853-4.949s-3.047 9.687-7.319 13.508c-5.978 5.365-16.574 5.024-16.574 5.024" fill="#fff"/>
   </g>
   <g transform="matrix(.070278 0 0 -.070278 60.244 -22.108)">
    <path d="m0 0s1.17-9.446-3.968-15.278c-6.422-7.285-13.875-9.137-13.875-9.137s0.253 10.161 3.296 15.009c4.272 6.806 14.547 9.406 14.547 9.406" fill="#fff"/>
   </g>
   <g transform="matrix(.070278 0 0 -.070278 56.897 -22.824)">
    <path d="m0 0s3.033-8.818 10.068-11.74c8.792-3.659 16.144-2.078 16.144-2.078s-4.593 8.831-9.358 11.791c-6.689 4.158-16.854 2.027-16.854 2.027" fill="#fff"/>
   </g>
   <g transform="matrix(.070278 0 0 -.070278 59.611 -23.911)">
    <path d="m0 0s2.733-8.917-1.238-15.418c-4.956-8.124-11.83-11.179-11.83-11.179s-1.488 9.845 0.625 15.043c2.965 7.298 12.443 11.554 12.443 11.554" fill="#fff"/>
   </g>
   <g transform="matrix(.070278 0 0 -.070278 56.239 -24.055)">
    <path d="m 0,0 c 0,0 4.424,-7.996 11.712,-9.617 9.105,-2.035 15.933,0.742 15.933,0.742 0,0 -5.937,7.741 -11.037,9.787 C 9.447,3.788 0,0 0,0" fill="#fff"/>
   </g>
   <g transform="matrix(.070278 0 0 -.070278 58.672 -25.567)">
    <path d="m0 0s4.161-8.142 1.44-15.092c-3.401-8.686-9.523-12.803-9.523-12.803s-3.109 9.251-1.956 14.626c1.622 7.548 10.039 13.269 10.039 13.269" fill="#fff"/>
   </g>
   <g transform="matrix(.070278 0 0 -.070278 55.37 -25.152)">
    <path d="m 0,0 c 0,0 5.637,-6.963 12.945,-7.29 9.135,-0.412 15.253,3.429 15.253,3.429 0,0 -7.052,6.461 -12.32,7.568 C 8.476,5.262 0,0 0,0" fill="#fff"/>
   </g>
   <g transform="matrix(.070278 0 0 -.070278 57.461 -27.025)">
    <path d="m0 0s5.396-7.149 3.95-14.323c-1.807-8.96-7.009-13.975-7.009-13.975s-4.576 8.399-4.377 13.781c0.279 7.56 7.436 14.517 7.436 14.517" fill="#fff"/>
   </g>
   <g transform="matrix(.070278 0 0 -.070278 54.332 -26.071)">
    <path d="m 0,0 c 0,0 6.629,-5.761 13.739,-4.83 8.886,1.155 14.138,5.903 14.138,5.903 0,0 -7.901,5.035 -13.183,5.205 C 7.284,6.523 0,0 0,0" fill="#fff"/>
   </g>
   <g transform="matrix(.070278 0 0 -.070278 56.032 -28.235)">
    <path d="m0 0s6.431-5.982 6.253-13.152c-0.215-8.953-4.386-14.682-4.386-14.682s-5.846 7.329-6.565 12.558c-1.023 7.345 4.698 15.276 4.698 15.276" fill="#fff"/>
   </g>
   <g transform="matrix(.070278 0 0 -.070278 53.156 -26.791)">
    <path d="m 0,0 c 0,0 7.377,-4.434 14.078,-2.326 8.383,2.628 12.646,8.104 12.646,8.104 0,0 -8.484,3.513 -13.609,2.779 C 5.924,7.53 0,0 0,0" fill="#fff"/>
   </g>
   <g transform="matrix(.070278 0 0 -.070278 54.429 -29.168)">
    <path d="m0 0s7.22-4.681 8.276-11.626c1.315-8.678-1.74-14.917-1.74-14.917s-6.888 6.08-8.475 11.001c-2.232 6.915 1.939 15.542 1.939 15.542" fill="#fff"/>
   </g>
   <g transform="matrix(.070278 0 0 -.070278 51.894 -27.29)">
    <path d="m 0,0 c 0,0 7.875,-3.024 13.984,0.151 7.644,3.962 10.821,9.973 10.821,9.973 0,0 -8.78,1.946 -13.605,0.368 C 4.44,8.273 0,0 0,0" fill="#fff"/>
   </g>
   <g transform="matrix(.070278 0 0 -.070278 52.694 -28.387)">
    <path d="m0 0s-5.813-3.284-10.969-1.512c-6.443 2.211-9.629 6.556-9.629 6.556s6.655 2.545 10.61 1.874c5.551-0.952 9.988-6.918 9.988-6.918" fill="#fff"/>
   </g>
   <g transform="matrix(.070278 0 0 -.070278 50.699 -23.67)">
    <path d="m0 0s-15.991-1.402-34.453 0c-0.1 1.135 0 6.815 0 6.815 19.196-1.474 34.453 0 34.453 0z" fill="#fff"/>
   </g>
   <g transform="matrix(.070278 0 0 -.070278 50.699 -23.655)">
    <path d="m0 0c-0.729-0.071-14.123-1.557-34.453 0-0.907 0.765-0.044 1.589-0.044 1.589 19.132-1.488 34.497 0 34.497 0s0.85-0.674 0-1.589" fill="#fff"/>
   </g>
   <g transform="matrix(.070278 0 0 -.070278 49.752 -24.665)">
    <path d="m0 0c1.284 1.637 1.907-1.667 0.603-2.803 2.288 0.098 3.2 5.983-0.606 5.379-1.537-0.165-2.313-1.593-2.685-3.104-0.25-0.747-0.287-1.578-0.225-2.368l-0.23 2e-3c-0.045 0.636-0.012 1.123 0.034 1.631 0.099 1.087 1.099 3.129 1.099 3.129 1.657 3.856-1.756 7.001-1.756 7.001-1.413-0.819-3.191-4.387-1.745-7.004 0 0 0.93-2.09 1.017-3.075 0.114-0.651 0.17-1.136 0.15-1.666l-0.21 3e-3c0.032 0.768-0.059 1.531-0.332 2.273-0.374 1.511-0.978 3.01-2.517 3.172-2.762-0.237-2.91-5.317-0.62-5.409-0.901 0.739-0.714 4.776 0.812 2.832 4.109-9.458-12.55-3.188-12.55-3.188s4.318 11.773 15.993 12.688c9.451-0.261 16.252-13.145 16.252-13.145s-17.454-5.46-12.484 3.652m12.092 2.431s-5.233 6.409-15.958 9.09c-8.045-1.634-15.437-8.044-15.437-8.044s-0.589 5.363-3.793 5.363c2.158-2.551 2.158-16.549 2.158-16.549h34.338s0.916 13.017 2.16 16.615c-2.683-0.719-3.468-6.475-3.468-6.475" fill="#fff" fill-rule="evenodd"/>
   </g>
   <g transform="matrix(.070278 0 0 -.070278 50.699 -24.065)">
    <path d="m0 0c-0.729-0.07-14.123-1.555-34.453 0-0.907 0.767-0.044 1.59-0.044 1.59 19.132-1.489 34.497 0 34.497 0s0.85-0.674 0-1.59" fill="#fff"/>
   </g>
   <g transform="matrix(.070278 0 0 -.070278 49.759 -26.01)">
    <path d="m0 0h-2.734v2.734h-2.109v-2.734h-2.734v-2.109h2.734v-2.734h2.109v2.734h2.734z" fill="#fff"/>
   </g>
   <g transform="matrix(.070278 0 0 -.070278 49.706 -25.515)">
    <path d="m0 0c0-1.684-1.366-3.048-3.05-3.048-1.683 0-3.049 1.364-3.049 3.048 0 1.685 1.366 3.05 3.049 3.05 1.684 0 3.05-1.365 3.05-3.05" fill="#fff"/>
   </g>
  </g>
  <g transform="matrix(.98692 0 0 1.0054 -38.334 29.32)">
   <g font-weight="500" stroke-width=".070278">
    <g aria-label="UCV">
     <path d="m47.96-17.461q-0.13547 0-0.22313-0.02656-0.08766-0.02391-0.14344-0.06641-0.05313-0.0425-0.07969-0.09297-0.02656-0.05313-0.03719-0.10625-0.16735 0.12219-0.38516 0.20719-0.21782 0.085-0.49142 0.085-0.24438 0-0.45423-0.06906-0.20719-0.06906-0.36391-0.2125-0.15406-0.1461-0.24172-0.37188-0.08766-0.22844-0.08766-0.5472 0-0.23375 8e-3 -0.4197t0.01859-0.34798q0.01328-0.16469 0.02656-0.3161 0.01594-0.15141 0.02656-0.3161 0.01328-0.16469 0.02125-0.35329 8e-3 -0.1886 8e-3 -0.42766 0-0.07438-0.01594-0.14078-0.01328-0.06906-0.04781-0.11953-0.03188-0.05313-0.09031-0.085-0.05844-0.03188-0.1461-0.03188-0.085 0-0.2125 0.0425-0.1275 0.03985-0.24704 0.11953-0.11688 0.07703-0.20188 0.19391-0.08234 0.11422-0.08234 0.26032 0 0.085 0.02125 0.13547 0.02391 0.05047 0.05313 0.07703 0.02922 0.02391 0.05844 0.03188 0.03187 0.0053 0.04516 0.0053 0.06641 0 0.10891-0.02125 0.0425-0.02391 0.07703-0.04781 0.03453-0.02656 0.06375-0.04781 0.03187-0.02391 0.07172-0.02391 0.03188 0 0.06641 0.01594 0.03719 0.01328 0.06641 0.04516 0.03187 0.03187 0.05313 0.085 0.02125 0.05047 0.02125 0.12485 0 0.10625-0.0425 0.18328-0.03984 0.07703-0.10625 0.13016-0.06375 0.05047-0.14875 0.07703-0.08235 0.02391-0.16469 0.02391-0.1275 0-0.2311-0.0425-0.10094-0.04516-0.17266-0.12219t-0.10891-0.18063q-0.03719-0.1036-0.03719-0.22047 0-0.18328 0.0611-0.33469 0.0611-0.15407 0.16735-0.27626 0.10625-0.12219 0.24438-0.2125 0.14078-0.09297 0.30016-0.15407 0.15938-0.06109 0.32672-0.09031 0.16735-0.03187 0.32672-0.03187 0.18328 0 0.31079 0.03984 0.13016 0.03719 0.21782 0.09828 0.09031 0.06109 0.14078 0.13547 0.05313 0.07438 0.07969 0.1461 0.02922 0.06906 0.03719 0.1275 8e-3 0.05578 8e-3 0.085 0 0.21516-8e-3 0.39579-8e-3 0.17797-0.02125 0.34266-0.01062 0.16469-0.02656 0.32407-0.01328 0.15672-0.02656 0.32938-0.01062 0.17-0.01859 0.36391-8e-3 0.19125-8e-3 0.42501 0 0.28954 0.05578 0.46751 0.05844 0.17532 0.14344 0.27094 0.085 0.09563 0.18063 0.1275 0.09828 0.03187 0.17532 0.03187 0.1461 0 0.29485-0.04781 0.15141-0.04781 0.29219-0.13813v-3.0786q0-0.07703-0.03453-0.12219-0.03188-0.04781-0.10094-0.04781-0.07438 0-0.13813 0.02656-0.06375 0.02656-0.11422 0.05047l-0.0425-0.09828q0.06641-0.03453 0.16203-0.07703 0.09563-0.04516 0.20454-0.085 0.10891-0.03984 0.22313-0.06641 0.11422-0.02656 0.21516-0.02656 0.18063 0 0.27891 0.04781 0.10094 0.04516 0.14875 0.11422 0.04781 0.06641 0.05578 0.14344 0.01063 0.07703 0.01063 0.13547v3.1265q0 0.07703 0.03453 0.12485 0.03453 0.04516 0.1036 0.04516 0.07172 0 0.13547-0.02391 0.06375-0.02656 0.11422-0.05313l0.0425 0.09828q-0.06641 0.03453-0.16204 0.07969-0.09563 0.0425-0.20454 0.08235-0.10891 0.03984-0.22313 0.06641-0.11422 0.02656-0.21516 0.02656z"/>
     <path d="m50.81-21.246q-0.07172 0-0.16735 0.02922-0.09563 0.02922-0.19657 0.11156-0.09828 0.07969-0.19391 0.22579t-0.17266 0.37985q-0.07438 0.2311-0.12219 0.56314-0.04516 0.33204-0.04516 0.78361 0 0.43032 0.04516 0.74642 0.04781 0.3161 0.12485 0.53923 0.07969 0.22047 0.18063 0.36126 0.10094 0.14078 0.2125 0.21782 0.11156 0.07969 0.22313 0.10891 0.11156 0.02922 0.20985 0.02922 0.1036 0 0.20985-0.02656t0.20719-0.07703q0.1036-0.05047 0.19657-0.12219 0.09563-0.07172 0.17532-0.16469l0.11953 0.11953q-0.07969 0.09828-0.19125 0.19922-0.11156 0.1036-0.26032 0.18594-0.1461 0.085-0.32938 0.13813-0.18328 0.05313-0.40641 0.05313-0.34798 0-0.64814-0.13282-0.29751-0.13282-0.52064-0.41438-0.22047-0.27891-0.34798-0.7172-0.12485-0.43829-0.12485-1.0492 0-0.57376 0.13282-1.0067t0.36126-0.72251q0.22844-0.29219 0.53657-0.43829 0.30813-0.14875 0.65611-0.14875 0.2311 0 0.4197 0.04516 0.19125 0.0425 0.32938 0.1275 0.13813 0.08235 0.2125 0.20719 0.07703 0.12219 0.07703 0.27891 0 0.07172-0.02391 0.15141-0.02391 0.07703-0.07438 0.14344-0.04781 0.06375-0.11953 0.10625-0.07172 0.03984-0.16735 0.03984-0.085 0-0.13282-0.03719-0.04516-0.03719-0.06906-0.09828-0.02125-0.0611-0.02922-0.13813-0.0053-0.07969-8e-3 -0.16204-0.0027-0.08235-0.01328-0.15938-8e-3 -0.07969-0.03719-0.14078-0.02656-0.0611-0.07969-0.09828-0.05313-0.03719-0.14875-0.03719z"/>
     <path d="m54.683-18.417q0.09563-0.24704 0.20188-0.54985 0.10625-0.30548 0.19391-0.61626 0.09031-0.31344 0.14875-0.60829 0.05844-0.29485 0.05844-0.52595 0-0.17532-0.02391-0.29219t-0.05578-0.19391q-0.02922-0.07969-0.05313-0.13016-0.02391-0.05047-0.02391-0.09297 0-0.05578 0.02922-0.09297 0.03188-0.03984 0.07703-0.06641 0.04516-0.02656 0.09828-0.03719 0.05313-0.01328 0.10094-0.01328 0.10625 0 0.17797 0.03188 0.07438 0.03188 0.1036 0.10891 0.01328 0.03984 0.02125 0.085 8e-3 0.0425 0.01063 0.085 0.0053 0.03984 0.0053 0.07703 0 0.03453 0 0.05578 0 0.11156-0.03719 0.30548-0.03719 0.19391-0.10094 0.43829-0.06109 0.24438-0.14344 0.52329-0.08234 0.27891-0.17 0.56314-0.08766 0.28157-0.17797 0.55251-0.09031 0.27094-0.17 0.50204-0.07969 0.22844-0.14344 0.4011-0.0611 0.17266-0.09563 0.25766-0.02391 0.06109-0.0611 0.09828-0.03453 0.03719-0.07969 0.05578-0.04516 0.02125-0.10094 0.02656-0.05313 8e-3 -0.11156 8e-3 -0.10625 0-0.17266-0.02125-0.06641-0.02125-0.10891-0.05313-0.03984-0.03188-0.05844-0.06906-0.01859-0.03719-0.02922-0.06641l-1.0067-3.161q-0.02922-0.09031-0.06109-0.15141-0.02922-0.06375-0.07438-0.1036-0.0425-0.03984-0.1036-0.05844-0.0611-0.01859-0.15141-0.01859-0.07438 0-0.17266 0.03719-0.09828 0.03453-0.1886 0.10625-0.08766 0.06906-0.14875 0.17532-0.06109 0.1036-0.06109 0.24172 0 0.085 0.02125 0.13547 0.02391 0.05047 0.05313 0.07703 0.02922 0.02391 0.05844 0.03188 0.03188 0.0053 0.04516 0.0053 0.06641 0 0.10891-0.02125 0.0425-0.02391 0.07703-0.04781 0.03453-0.02656 0.06375-0.04781 0.03188-0.02391 0.07172-0.02391 0.03188 0 0.06641 0.01594 0.03719 0.01328 0.06641 0.04516 0.03188 0.03187 0.05313 0.085 0.02125 0.05047 0.02125 0.12485 0 0.10625-0.0425 0.18328-0.03984 0.07703-0.10625 0.13016-0.06375 0.05047-0.14875 0.07703-0.08235 0.02391-0.16469 0.02391-0.1275 0-0.22844-0.04516-0.09828-0.04516-0.16735-0.12219-0.06641-0.07703-0.1036-0.17797-0.03453-0.1036-0.03453-0.22047 0-0.27626 0.10625-0.48079 0.10625-0.20719 0.28157-0.34532 0.17532-0.13813 0.39844-0.20454 0.22313-0.06906 0.45954-0.06906 0.26563 0 0.43563 0.08235 0.17 0.07969 0.2736 0.20719 0.10625 0.1275 0.16735 0.28688 0.06109 0.15672 0.10891 0.31079z"/>
    </g>
    <g aria-label="intercolegial">
     <path d="m45.635-15.691q0 0.01117-0.0043 0.02749-0.0034 0.01546-0.01804 0.03007-0.01375 0.01375-0.04038 0.0232-0.02663 0.01031-0.07217 0.01031-0.04553 0-0.07131-0.01117-0.02577-0.01031-0.03866-0.02492-0.01289-0.0146-0.01632-0.03007-0.0026-0.01546-0.0026-0.02492v-0.66325q0-0.02491-0.01203-0.04296-0.01117-0.0189-0.03866-0.0189-0.01461 0-0.02492 0.0052t-0.02234 0.0146l-0.01804-0.02148q0.01976-0.01632 0.04382-0.03179 0.02491-0.01632 0.05327-0.02835 0.02835-0.01203 0.061-0.01976 0.03265-0.0077 0.06873-0.0077 0.05584 0 0.08677 0.01546 0.03093 0.0146 0.04553 0.03694 0.01461 0.02148 0.01718 0.04639 0.0034 0.02492 0.0034 0.04382zm-0.29039-1.0103q0-0.02406 0.01031-0.04553 0.01117-0.02234 0.03007-0.03866 0.01976-0.01632 0.04468-0.02577 0.02577-0.0095 0.05584-0.0095 0.02921 0 0.05412 0.0095 0.02577 0.0095 0.04468 0.02577 0.0189 0.01632 0.02921 0.03866 0.01117 0.02148 0.01117 0.04553 0 0.02492-0.01117 0.04639-0.01031 0.02148-0.02921 0.0378-0.0189 0.01547-0.04468 0.02492-0.02492 0.0095-0.05412 0.0095-0.03007 0-0.05584-0.0095-0.02492-0.0094-0.04468-0.02492-0.0189-0.01632-0.03007-0.0378-0.01031-0.02148-0.01031-0.04639z"/>
     <path d="m46.356-16.041q0-0.10825-0.01031-0.17268-0.0095-0.06529-0.02577-0.0988-0.01632-0.03437-0.03608-0.04467-0.01976-0.01117-0.04038-0.01117-0.02492 0-0.04468 0.01375-0.0189 0.01289-0.03351 0.03007-0.01375 0.01718-0.02406 0.03436-0.0095 0.01718-0.01632 0.02577v0.5739q0 0.01117-0.0034 0.02749-0.0034 0.01546-0.01718 0.03007-0.01289 0.01375-0.03952 0.0232-0.02577 0.01031-0.07131 0.01031-0.04553 0-0.07217-0.01117-0.02577-0.01031-0.03952-0.02492-0.01375-0.0146-0.01718-0.03007-0.0034-0.01546-0.0034-0.02492v-0.66325q0-0.02491-0.01203-0.04296-0.01117-0.0189-0.03866-0.0189-0.01461 0-0.02492 0.0052t-0.02234 0.0146l-0.01804-0.02148q0.01976-0.01632 0.04382-0.03179 0.02492-0.01632 0.05327-0.02835t0.061-0.01976q0.03265-0.0077 0.06873-0.0077 0.05584 0 0.08677 0.0189 0.03093 0.01804 0.04553 0.04382 0.01461 0.02577 0.01718 0.05412 0.0034 0.02749 0.0034 0.04639 0.03179-0.04553 0.07217-0.08162 0.01632-0.01546 0.03608-0.03007 0.02062-0.0146 0.04296-0.02577 0.0232-0.01203 0.04811-0.0189 0.02577-0.0069 0.05241-0.0069 0.05842 0 0.1031 0.02234 0.04553 0.02234 0.07646 0.07474 0.03093 0.05241 0.04725 0.13918 0.01632 0.08591 0.01632 0.21392 0 0.12457-0.02234 0.2165-0.02234 0.09193-0.05842 0.15636-0.03608 0.06443-0.08162 0.10481-0.04553 0.04124-0.09193 0.06443-0.04639 0.0232-0.08935 0.03179-0.0421 0.0095-0.07303 0.01031l-0.0095-0.03522q0.02577-6e-3 0.04725-0.0189 0.02234-0.01289 0.04038-0.0378 0.01804-0.02492 0.03179-0.06272 0.01375-0.03866 0.0232-0.09622 0.01031-0.05756 0.01461-0.13574 0.0052-0.07904 0.0052-0.18385z"/>
     <path d="m47.076-16.431v0.6349q0 0.04553 0.01718 0.06358 0.01718 0.01718 0.04725 0.01718 0.0232 0 0.04124-0.01289t0.03093-0.02921q0.01546-0.01804 0.02663-0.0421l0.02663 0.01203q-0.01289 0.02749-0.03093 0.06014-0.01718 0.03265-0.04639 0.061-0.02921 0.02749-0.07389 0.04639-0.04382 0.0189-0.11083 0.0189-0.0378 0-0.07303-0.01117-0.03437-0.01117-0.06186-0.03522-0.02663-0.02406-0.04296-0.06014-0.01632-0.03608-0.01632-0.08677v-0.63662h-0.09622v-0.06186q0.02406 0 0.06701-0.01203 0.04296-0.01289 0.08763-0.0421 0.04553-0.02921 0.0842-0.07818 0.03866-0.04897 0.05498-0.12114h0.06873v0.25344h0.14004q0.06873 0 0.06873-0.0232 0-0.0086-0.0086-0.01117-0.0086-0.0034-0.01976-0.0077-0.01031-0.0052-0.0189-0.01375-0.0086-0.0086-0.0086-0.02835 0-0.02406 0.01461-0.0378 0.01546-0.01375 0.03952-0.01375 0.01546 0 0.02663 0.0069 0.01203 6e-3 0.01976 0.01718 0.0077 0.01031 0.01117 0.02406 0.0043 0.01375 0.0043 0.02749 0 0.05584-0.03265 0.08935-0.03179 0.03265-0.1031 0.03265z"/>
     <path d="m47.595-16.008q0 0.02749 0.0077 0.06014 0.0086 0.03179 0.02405 0.06443 0.01547 0.03265 0.0378 0.06272 0.0232 0.02921 0.05241 0.05241 0.03007 0.0232 0.06615 0.03694 0.03608 0.01375 0.07904 0.01375 0.03007 0 0.05584-0.0069t0.04811-0.0189q0.02234-0.01203 0.04296-0.02749 0.02062-0.01632 0.04124-0.03437l0.02148 0.02062q-0.01976 0.02663-0.05069 0.05842t-0.07474 0.06014q-0.04382 0.02749-0.10224 0.04639-0.05842 0.01804-0.13316 0.01804-0.07474 0-0.14605-0.02663-0.07045-0.02749-0.12543-0.08162-0.05499-0.05413-0.08849-0.13488-0.03265-0.08076-0.03265-0.18901 0-0.07818 0.01976-0.14348 0.01976-0.06529 0.05327-0.1177 0.03437-0.05241 0.07904-0.09193 0.04553-0.03952 0.09536-0.06529 0.04983-0.02663 0.10138-0.03952 0.05241-0.01375 0.10052-0.01375 0.06358 0 0.11083 0.01375 0.04725 0.01375 0.07818 0.03694 0.03179 0.0232 0.04725 0.05412 0.01546 0.03007 0.01546 0.06358 0 0.04038-0.0232 0.07303-0.0232 0.03179-0.06186 0.05584zm0.17269-0.1744q0.01117-0.0069 0.01804-0.01289 0.0077-0.0069 0.01203-0.01546 0.0043-0.0095 6e-3 -0.02234 0.0026-0.01375 0.0026-0.03351 0-0.02148-0.0052-0.04725-0.0043-0.02663-0.01546-0.04983-0.01117-0.0232-0.02835-0.03866t-0.04124-0.01546q-0.03093 0-0.05327 0.0189-0.02148 0.01804-0.03608 0.04725-0.01375 0.02921-0.02234 0.06701-0.0077 0.03694-0.01203 0.07474-0.0043 0.0378-0.0052 0.07303-8.59e-4 0.03437-8.59e-4 0.05842z"/>
     <path d="m48.462-16.324q0.03265-0.04983 0.06959-0.09021 0.01546-0.01718 0.03351-0.03351 0.01804-0.01632 0.03694-0.02921 0.01976-0.01289 0.04038-0.02062 0.02062-0.0077 0.04124-0.0077 0.04382 0 0.06873 0.02663 0.02492 0.02577 0.02492 0.07303 0 0.02921-0.0052 0.0567-0.0043 0.02663-0.01804 0.06529h-0.02406q-0.0052-0.02663-0.02405-0.04382-0.0189-0.01804-0.05499-0.01804-0.02663 0-0.05241 0.01031-0.02577 0.0095-0.05069 0.02406-0.02406 0.0146-0.04639 0.03179-0.02148 0.01718-0.03952 0.03265v0.55758q0 0.01117-0.0034 0.02663t-0.01718 0.02921q-0.01289 0.01375-0.03952 0.0232-0.02577 0.01031-0.07131 0.01031-0.04553 0-0.07217-0.01117-0.02577-0.01031-0.03952-0.02492-0.01375-0.0146-0.01718-0.03007-0.0034-0.01546-0.0034-0.02492v-0.66325q0-0.02491-0.01203-0.04296-0.01117-0.0189-0.03866-0.0189-0.01461 0-0.02492 0.0052t-0.02234 0.0146l-0.01804-0.02148q0.01976-0.01632 0.04382-0.03179 0.02492-0.01632 0.05327-0.02835t0.061-0.01976q0.03265-0.0077 0.06873-0.0077 0.03694 0 0.06272 0.01031 0.02663 0.0095 0.04296 0.02577 0.01718 0.01546 0.02663 0.03522 0.0095 0.01976 0.01375 0.04038 0.0052 0.01976 6e-3 0.03866 8.6e-4 0.01804 8.6e-4 0.03093z"/>
     <path d="m49.397-16.208q-0.02663 0-0.04467-0.0077-0.01804-0.0086-0.02921-0.02234-0.01117-0.01375-0.01632-0.03007-0.0052-0.01718-0.0052-0.03522 0-0.0232 0.0026-0.04467 0.0034-0.02148 8.59e-4 -0.03866-0.0017-0.01718-0.01289-0.02749-0.01117-0.01031-0.03952-0.01031-0.03007 0-0.06358 0.01718t-0.061 0.05412-0.04553 0.09536q-0.01804 0.05756-0.01804 0.13918 0 0.09021 0.01632 0.16495 0.01718 0.07389 0.05069 0.12629 0.03351 0.05241 0.08334 0.08162 0.04983 0.02835 0.11684 0.02835 0.03007 0 0.0567-0.0069 0.02749-0.0069 0.05155-0.0189 0.02406-0.01203 0.04553-0.02749 0.02234-0.01632 0.04296-0.03437l0.02148 0.02062q-0.01976 0.02663-0.05069 0.05842t-0.07474 0.06014q-0.04382 0.02749-0.10224 0.04639-0.05842 0.01804-0.13317 0.01804-0.07474 0-0.14605-0.02835-0.07045-0.02921-0.12543-0.0842-0.05498-0.05498-0.08849-0.13316-0.03265-0.07904-0.03265-0.17956 0-0.07818 0.01976-0.14348 0.01976-0.06615 0.05327-0.11942 0.03437-0.05327 0.07904-0.09365 0.04553-0.04038 0.09536-0.06701 0.04983-0.02749 0.10138-0.04124 0.05241-0.01375 0.10052-0.01375 0.06358 0 0.11083 0.01461 0.04725 0.01461 0.07818 0.03866 0.03179 0.02406 0.04725 0.05584 0.01546 0.03093 0.01546 0.06443 0 0.02492-0.0069 0.04811-6e-3 0.02234-0.0189 0.03952-0.01203 0.01632-0.03093 0.02663-0.0189 0.0095-0.04382 0.0095z"/>
     <path d="m49.611-16.053q0-0.11255 0.03265-0.19674 0.03265-0.08505 0.08677-0.14176 0.05498-0.0567 0.12715-0.08505 0.07217-0.02835 0.15121-0.02835 0.07904 0 0.15121 0.02663 0.07217 0.02577 0.12629 0.0799 0.05499 0.05412 0.08763 0.13746 0.03265 0.08248 0.03265 0.19588 0 0.11255-0.03265 0.19932-0.03265 0.08677-0.08763 0.14605-0.05412 0.05928-0.12629 0.09021-0.07217 0.03007-0.15121 0.03007-0.07904 0-0.15121-0.02835-0.07217-0.02921-0.12715-0.08591-0.05413-0.0567-0.08677-0.14176-0.03265-0.08505-0.03265-0.1976zm0.52837-0.0086q0-0.06873-0.0052-0.13231-0.0043-0.06443-0.01804-0.11426-0.01375-0.04983-0.03952-0.07904-0.02577-0.03007-0.06787-0.03007t-0.06787 0.03179q-0.02577 0.03093-0.03952 0.08248-0.01375 0.05069-0.01804 0.11598-0.0043 0.06529-0.0043 0.13402 0 0.06873 0.0043 0.13488 0.0043 0.06529 0.01804 0.11684 0.01375 0.05155 0.03952 0.08333 0.02577 0.03093 0.06787 0.03093t0.06787-0.03265 0.03952-0.08591q0.01375-0.05327 0.01804-0.12028 0.0052-0.06701 0.0052-0.13574z"/>
     <path d="m50.832-15.689q0 0.01117-0.0043 0.02663-0.0034 0.01546-0.01804 0.02921-0.01375 0.01375-0.04124 0.0232-0.02663 0.01031-0.07217 0.01031-0.04553 0-0.07131-0.01117-0.02577-0.01031-0.03866-0.02492-0.01203-0.0146-0.01546-0.03007-0.0026-0.01546-0.0026-0.02492v-1.1083q0-0.02492-0.01203-0.04296-0.01117-0.0189-0.03866-0.0189-0.0146 0-0.02577 0.0052-0.01031 0.0043-0.02234 0.01375l-0.01718-0.02062q0.01976-0.01632 0.04382-0.03179 0.02406-0.01632 0.05241-0.02835 0.02921-0.01203 0.06186-0.01976 0.03265-0.0077 0.06873-0.0077 0.05584 0 0.08677 0.01546 0.03093 0.0146 0.04553 0.03694 0.0146 0.02148 0.01718 0.04639 0.0034 0.02406 0.0034 0.04296z"/>
     <path d="m51.271-16.008q0 0.02749 0.0077 0.06014 0.0086 0.03179 0.02406 0.06443 0.01546 0.03265 0.0378 0.06272 0.0232 0.02921 0.05241 0.05241 0.03007 0.0232 0.06615 0.03694 0.03608 0.01375 0.07904 0.01375 0.03007 0 0.05584-0.0069t0.04811-0.0189q0.02234-0.01203 0.04296-0.02749 0.02062-0.01632 0.04124-0.03437l0.02148 0.02062q-0.01976 0.02663-0.05069 0.05842t-0.07474 0.06014q-0.04382 0.02749-0.10224 0.04639-0.05842 0.01804-0.13316 0.01804-0.07475 0-0.14605-0.02663-0.07045-0.02749-0.12543-0.08162-0.05499-0.05413-0.08849-0.13488-0.03265-0.08076-0.03265-0.18901 0-0.07818 0.01976-0.14348 0.01976-0.06529 0.05327-0.1177 0.03437-0.05241 0.07904-0.09193 0.04553-0.03952 0.09536-0.06529 0.04983-0.02663 0.10138-0.03952 0.05241-0.01375 0.10052-0.01375 0.06358 0 0.11083 0.01375 0.04725 0.01375 0.07818 0.03694 0.03179 0.0232 0.04725 0.05412 0.01546 0.03007 0.01546 0.06358 0 0.04038-0.0232 0.07303-0.0232 0.03179-0.06186 0.05584zm0.17269-0.1744q0.01117-0.0069 0.01804-0.01289 0.0077-0.0069 0.01203-0.01546 0.0043-0.0095 6e-3 -0.02234 0.0026-0.01375 0.0026-0.03351 0-0.02148-0.0052-0.04725-0.0043-0.02663-0.01546-0.04983-0.01117-0.0232-0.02835-0.03866t-0.04124-0.01546q-0.03093 0-0.05327 0.0189-0.02148 0.01804-0.03608 0.04725-0.01375 0.02921-0.02234 0.06701-0.0077 0.03694-0.01203 0.07474-0.0043 0.0378-0.0052 0.07303-8.59e-4 0.03437-8.59e-4 0.05842z"/>
     <path d="m51.809-16.154q0-0.08763 0.03007-0.15292 0.03093-0.06615 0.08248-0.10997 0.05155-0.04467 0.11942-0.06615 0.06787-0.02234 0.14262-0.02234 0.07474 0 0.14176 0.01976 0.06701 0.01976 0.11856 0.061 0.01632-0.02492 0.02663-0.05241t0.01031-0.05498q0-0.03608-0.01976-0.05756-0.0189-0.02148-0.04897-0.02148v-0.02492q0.0189-6e-3 0.03351-0.01031 0.01461-0.0052 0.02663-0.0077 0.01203-0.0026 0.02406-0.0034 0.01203-0.0017 0.02663-0.0017 0.04038 0 0.06186 0.02492 0.02148 0.02491 0.02148 0.06873 0 0.02577-0.01203 0.05155-0.01203 0.02492-0.03007 0.04811-0.01804 0.0232-0.04038 0.04382-0.02148 0.02062-0.04124 0.03608 0.03608 0.04124 0.05584 0.09622t0.01976 0.12543q0 0.08849-0.03093 0.15636-0.03007 0.06787-0.08162 0.11426-0.05155 0.04639-0.11942 0.07045-0.06787 0.0232-0.14262 0.0232-0.04382 0-0.08591-0.0077-0.0421-0.0077-0.07904-0.02234-0.01375 0.01031-0.02405 0.02577-0.0095 0.01546-0.0095 0.03437 0 0.03179 0.02749 0.04725t0.07303 0.02234q0.04553 0.0069 0.1031 0.0086 0.05756 0.0017 0.1177 6e-3 0.061 0.0034 0.11856 0.0146 0.05756 0.01031 0.1031 0.03523 0.04553 0.02406 0.07303 0.06615 0.02749 0.0421 0.02749 0.10911 0 0.04897-0.02062 0.08763-0.02062 0.03952-0.05584 0.06873-0.03437 0.03007-0.08076 0.05069-0.04553 0.02148-0.09708 0.03436-0.05069 0.01375-0.10396 0.01976-0.05241 6e-3 -0.10052 6e-3 -0.08763 0-0.15808-0.0094-0.06959-0.0086-0.11856-0.02749-0.04897-0.0189-0.0756-0.04897t-0.02663-0.07217q0-0.03007 0.01375-0.05584 0.01375-0.02492 0.03608-0.04639 0.0232-0.02062 0.05155-0.0378 0.02835-0.01632 0.05756-0.03093-0.04296-0.01804-0.07217-0.05498-0.02835-0.03608-0.02835-0.09622 0-0.03179 0.01117-0.05842 0.01117-0.02749 0.02835-0.04983 0.01804-0.0232 0.03866-0.04124 0.02148-0.0189 0.04124-0.03179-0.03523-0.02062-0.06529-0.04983-0.02921-0.03007-0.05069-0.06701-0.02062-0.0378-0.03265-0.08334-0.01117-0.04553-0.01117-0.0988zm0.49056-0.0069q0-0.04983-0.0052-0.09708t-0.01804-0.0842q-0.01289-0.03694-0.03522-0.05928-0.02234-0.0232-0.05756-0.0232t-0.05756 0.02406q-0.02234 0.0232-0.03523 0.06186-0.01289 0.0378-0.01804 0.08677-0.0052 0.04811-0.0052 0.09794 0 0.05069 0.0052 0.09966t0.01804 0.08763q0.01289 0.03866 0.03523 0.06272 0.02234 0.0232 0.05756 0.0232t0.05756-0.02491q0.02234-0.02492 0.03522-0.06443 0.01289-0.04038 0.01804-0.09021 0.0052-0.04983 0.0052-0.10052zm0.13059 0.76892q0-0.02749-0.02148-0.04553-0.02148-0.01718-0.0567-0.02835-0.03437-0.01031-0.07904-0.01632-0.04382-0.0052-0.08935-0.0086-0.04553-0.0026-0.08849-0.0052t-0.07474-0.0069q-0.01804 0.01289-0.03522 0.02749-0.01632 0.01546-0.02921 0.03179-0.01203 0.01718-0.01976 0.03522-0.0077 0.0189-0.0077 0.0378 0 0.03265 0.0189 0.05413 0.0189 0.02234 0.05069 0.03522 0.03265 0.01289 0.07475 0.01804 0.04296 0.0052 0.09021 0.0052 0.06272 0 0.11255-0.01117 0.04983-0.01031 0.08419-0.02921 0.03437-0.01804 0.05241-0.0421t0.01804-0.05155z"/>
     <path d="m53.017-15.691q0 0.01117-0.0043 0.02749-0.0034 0.01546-0.01804 0.03007-0.01375 0.01375-0.04038 0.0232-0.02663 0.01031-0.07217 0.01031-0.04553 0-0.07131-0.01117-0.02577-0.01031-0.03866-0.02492-0.01289-0.0146-0.01632-0.03007-0.0026-0.01546-0.0026-0.02492v-0.66325q0-0.02491-0.01203-0.04296-0.01117-0.0189-0.03866-0.0189-0.01461 0-0.02492 0.0052t-0.02234 0.0146l-0.01804-0.02148q0.01976-0.01632 0.04382-0.03179 0.02492-0.01632 0.05327-0.02835t0.061-0.01976q0.03265-0.0077 0.06873-0.0077 0.05584 0 0.08677 0.01546 0.03093 0.0146 0.04553 0.03694 0.01461 0.02148 0.01718 0.04639 0.0034 0.02492 0.0034 0.04382zm-0.29039-1.0103q0-0.02406 0.01031-0.04553 0.01117-0.02234 0.03007-0.03866 0.01976-0.01632 0.04468-0.02577 0.02577-0.0095 0.05584-0.0095 0.02921 0 0.05413 0.0095 0.02577 0.0095 0.04467 0.02577 0.0189 0.01632 0.02921 0.03866 0.01117 0.02148 0.01117 0.04553 0 0.02492-0.01117 0.04639-0.01031 0.02148-0.02921 0.0378-0.0189 0.01547-0.04467 0.02492-0.02492 0.0095-0.05413 0.0095-0.03007 0-0.05584-0.0095-0.02492-0.0094-0.04468-0.02492-0.0189-0.01632-0.03007-0.0378-0.01031-0.02148-0.01031-0.04639z"/>
     <path d="m53.62-16.058q0-0.02148-0.01375-0.03265t-0.03522-0.01117q-0.03007 0-0.05756 0.01375-0.02663 0.01375-0.04725 0.04038t-0.03265 0.06615q-0.01203 0.03866-0.01203 0.09021 0 0.04983 0.0069 0.08248 0.0077 0.03265 0.01976 0.05241 0.01289 0.0189 0.02921 0.02663 0.01632 0.0077 0.03437 0.0077 0.02234 0 0.0421-0.01117 0.01976-0.01203 0.03436-0.03007 0.01461-0.01804 0.0232-0.04038 0.0086-0.02234 0.0086-0.04467zm-0.1366-0.3763q-0.02921 0-0.05412 0.0069-0.02492 0.0069-0.04296 0.01718-0.01804 0.01031-0.02835 0.0232-0.01031 0.01203-0.01031 0.0232 0 0.01289 0.01289 0.0189 0.01375 0.0052 0.03007 0.01289 0.01632 0.0069 0.02921 0.02062 0.01375 0.01289 0.01375 0.04038 0 0.01804-0.0077 0.03351-0.0069 0.0146-0.01976 0.02663-0.01203 0.01117-0.02921 0.01804-0.01632 6e-3 -0.03437 6e-3 -0.04811 0-0.07818-0.03265-0.02921-0.03265-0.02921-0.08677 0-0.05241 0.02749-0.08935 0.02749-0.0378 0.07131-0.06186 0.04468-0.02406 0.10052-0.03523 0.05584-0.01203 0.11169-0.01203 0.06701 0 0.12801 0.01461t0.10739 0.04639q0.04725 0.03179 0.07474 0.08076 0.02835 0.04897 0.02835 0.11856v0.48541q0 0.0077 8.59e-4 0.01718 8.6e-4 0.0094 0.0043 0.01718 0.0034 0.0077 0.01031 0.01289 0.0069 0.0052 0.01976 0.0052 0.01546 0 0.02835-0.01117 0.01375-0.01203 0.02406-0.02405l0.02148 0.01804q-0.01289 0.01804-0.03093 0.03952t-0.04382 0.04038q-0.02577 0.0189-0.06014 0.03179-0.03436 0.01289-0.07818 0.01289-0.05413 0-0.09622-0.03179-0.0421-0.03265-0.05499-0.09966-0.02749 0.03694-0.05756 0.06186-0.02921 0.02491-0.06014 0.04038-0.03093 0.01546-0.06272 0.02234-0.03093 0.0069-0.06272 0.0069-0.04124 0-0.0799-0.01289t-0.06959-0.04038q-0.03007-0.02835-0.04897-0.07303-0.01804-0.04467-0.01804-0.10911 0-0.07818 0.03093-0.12801t0.08076-0.08334q0.05069-0.03436 0.11426-0.05842 0.06444-0.02406 0.13145-0.05069 0.04983-0.01976 0.07217-0.05842 0.0232-0.03952 0.0232-0.08076 0-0.06358-0.0378-0.10138-0.03694-0.03866-0.10138-0.03866z"/>
     <path d="m54.376-15.689q0 0.01117-0.0043 0.02663-0.0034 0.01546-0.01804 0.02921-0.01375 0.01375-0.04124 0.0232-0.02663 0.01031-0.07217 0.01031-0.04553 0-0.07131-0.01117-0.02577-0.01031-0.03866-0.02492-0.01203-0.0146-0.01546-0.03007-0.0026-0.01546-0.0026-0.02492v-1.1083q0-0.02492-0.01203-0.04296-0.01117-0.0189-0.03866-0.0189-0.01461 0-0.02577 0.0052-0.01031 0.0043-0.02234 0.01375l-0.01718-0.02062q0.01976-0.01632 0.04382-0.03179 0.02406-0.01632 0.05241-0.02835 0.02921-0.01203 0.06186-0.01976 0.03265-0.0077 0.06873-0.0077 0.05584 0 0.08677 0.01546 0.03093 0.0146 0.04553 0.03694 0.01461 0.02148 0.01718 0.04639 0.0034 0.02406 0.0034 0.04296z"/>
    </g>
    <g aria-label="2011">
     <path d="m48.648-12.459q0.06443 0 0.12028 0.01546 0.05584 0.01546 0.09622 0.04725 0.04124 0.03179 0.06443 0.08162 0.0232 0.04897 0.0232 0.11598 0 0.04639-0.01976 0.08849-0.0189 0.0421-0.05155 0.0799-0.03179 0.0378-0.07303 0.07131t-0.08505 0.06272q-0.04382 0.02921-0.08677 0.05413-0.0421 0.02492-0.07732 0.04639h0.28867q0.05155 0 0.07389-0.02148t0.02749-0.06701h0.03522q0 0.02749-8.59e-4 0.06186-8.59e-4 0.03436-0.0052 0.06959-0.0043 0.03522-0.01289 0.06873-0.0086 0.03351-0.02491 0.05928-0.01632 0.02577-0.04124 0.0421-0.02491 0.01547-0.061 0.01547h-0.59619v-0.04897q0.02577-0.01632 0.06701-0.04725 0.0421-0.03093 0.08935-0.07217t0.09536-0.09107 0.08677-0.10224q0.03866-0.05327 0.06272-0.10739 0.02492-0.05498 0.02492-0.10653 0-0.03694-0.01031-0.06701-0.0095-0.03007-0.03007-0.05155-0.02062-0.02234-0.05241-0.03436-0.03093-0.01203-0.07474-0.01203-0.04124 0-0.0756 0.01117-0.03351 0.01031-0.06186 0.02749-0.02749 0.01718-0.04983 0.04038-0.02148 0.0232-0.0378 0.04725l-0.0232-0.02234q0.0189-0.04038 0.05412-0.08505 0.03608-0.04467 0.08677-0.08248 0.05069-0.0378 0.11512-0.06272 0.06444-0.02492 0.14004-0.02492z"/>
     <path d="m49.545-11.554q-0.09279 0-0.17354-0.02663-0.08076-0.02663-0.14176-0.08162-0.06014-0.05584-0.09536-0.1409-0.03437-0.08591-0.03437-0.20276 0-0.11684 0.03437-0.20276 0.03522-0.08591 0.09536-0.1409 0.061-0.05584 0.14176-0.08248 0.08076-0.02749 0.17354-0.02749 0.09279 0 0.17354 0.02749 0.08162 0.02663 0.14176 0.08248 0.061 0.05498 0.09622 0.1409 0.03522 0.08591 0.03522 0.20276 0 0.11684-0.03522 0.20276-0.03522 0.08505-0.09622 0.1409-0.06014 0.05498-0.14176 0.08162-0.08076 0.02663-0.17354 0.02663zm0-0.82992q-0.01632 0-0.03437 0.0043-0.01804 0.0043-0.03608 0.01804-0.01718 0.01375-0.03265 0.03952-0.01546 0.02492-0.02749 0.06701-0.01203 0.0421-0.01976 0.10396-0.0069 0.061-0.0069 0.14691 0 0.08591 0.0069 0.14777 0.0077 0.061 0.01976 0.10224 0.01203 0.04124 0.02749 0.06615 0.01546 0.02406 0.03265 0.03694 0.01804 0.01289 0.03608 0.01632 0.01804 0.0034 0.03437 0.0034 0.01632 0 0.03437-0.0034 0.0189-0.0034 0.03608-0.01632 0.01804-0.01289 0.03351-0.03694 0.01632-0.02492 0.02835-0.06615 0.01203-0.04124 0.0189-0.10224 0.0069-0.061 0.0069-0.14777 0-0.08591-0.0069-0.14691-0.0069-0.06186-0.0189-0.10396-0.01203-0.0421-0.02835-0.06701-0.01546-0.02577-0.03351-0.03952-0.01718-0.01375-0.03608-0.01804-0.01804-0.0043-0.03437-0.0043z"/>
     <path d="m50.503-11.68q0 0.06615-0.03351 0.09622t-0.10481 0.03007q-0.07217 0-0.10567-0.03007-0.03351-0.03007-0.03351-0.09622v-0.5739q0-0.01117-0.0026-0.02234-0.0026-0.01203-0.0095-0.02062-0.0069-0.0095-0.0189-0.01547-0.01203-6e-3 -0.03093-6e-3 -0.01718 0-0.03351 0.0069-0.01632 0.0069-0.03007 0.01547-0.01546 0.0094-0.03093 0.02148l-0.02148-0.02835q0.10567-0.08334 0.19159-0.11942 0.08677-0.03694 0.16238-0.03694 0.04468 0 0.07303 0.02663 0.02835 0.02577 0.02835 0.08248v0.67012z"/>
     <path d="m51.061-11.68q0 0.06615-0.03351 0.09622t-0.10481 0.03007q-0.07217 0-0.10567-0.03007-0.03351-0.03007-0.03351-0.09622v-0.5739q0-0.01117-0.0026-0.02234-0.0026-0.01203-0.0095-0.02062-0.0069-0.0095-0.0189-0.01547-0.01203-6e-3 -0.03093-6e-3 -0.01718 0-0.03351 0.0069-0.01632 0.0069-0.03007 0.01547-0.01546 0.0094-0.03093 0.02148l-0.02148-0.02835q0.10567-0.08334 0.19159-0.11942 0.08677-0.03694 0.16238-0.03694 0.04467 0 0.07303 0.02663 0.02835 0.02577 0.02835 0.08248v0.67012z"/>
    </g>
   </g>
   <g stroke-width=".15965" aria-label="Ganador">
    <path d="m45.245-6.2354h-0.29765v1.2134q0 0.28112-0.09508 0.48989-0.09508 0.21084-0.26665 0.34933-0.1695 0.14056-0.40307 0.20877-0.23358 0.070279-0.50849 0.070279-0.10542 0-0.20257-0.018603-0.09715-0.016536-0.17156-0.047542-0.07441-0.031006-0.11989-0.074413-0.04341-0.041341-0.04341-0.093017 0-0.037207 0.01033-0.07648 0.01033-0.037207 0.03101-0.068212 0.02067-0.031006 0.04961-0.051676 0.03101-0.018603 0.06821-0.018603 0.0248 0 0.04134 0.022738 0.01654 0.022737 0.03514 0.05581t0.04341 0.072346q0.02481 0.041341 0.06201 0.074414 0.03721 0.033073 0.09095 0.05581 0.05374 0.022738 0.13436 0.022738 0.15916 0 0.28112-0.057877 0.12196-0.057877 0.20257-0.1633 0.08268-0.10335 0.12402-0.25011 0.04341-0.14469 0.04341-0.32039v-0.12609q-0.08682 0.018603-0.1757 0.026871-0.08682 0.010335-0.19637 0.010335-0.28112 0-0.5271-0.084749-0.24598-0.086816-0.42994-0.26665-0.1819-0.17983-0.28732-0.45888-0.10542-0.27905-0.10542-0.66559 0-0.26872 0.05788-0.49609t0.16123-0.40927q0.10335-0.18397 0.24391-0.32246 0.14263-0.13849 0.30799-0.23151 0.16743-0.093017 0.3514-0.14056 0.18603-0.047542 0.3762-0.047542 0.17983 0 0.33486 0.03514 0.15503 0.033073 0.26872 0.099218 0.11575 0.064078 0.1819 0.16123 0.06615 0.095084 0.06615 0.21704 0 0.05581-0.02067 0.11782-0.0186 0.059944-0.05581 0.11162-0.03721 0.049609-0.09508 0.082682-0.05581 0.031006-0.13022 0.031006-0.08888 0-0.13229-0.049609-0.04134-0.051676-0.06408-0.12609-0.02067-0.074413-0.03101-0.1633-0.01034-0.088883-0.03514-0.1633-0.0248-0.074413-0.07648-0.12402-0.04961-0.051676-0.14676-0.051676-0.07235 0-0.1633 0.03514-0.09095 0.03514-0.18397 0.11162-0.09302 0.074414-0.18397 0.19223-0.08888 0.11575-0.15916 0.27905-0.06821 0.1633-0.11162 0.3762-0.04134 0.21084-0.04134 0.47542 0 0.29352 0.03721 0.50229 0.03721 0.2067 0.09715 0.34726 0.06201 0.13849 0.14056 0.22117 0.08061 0.080615 0.16536 0.12196 0.08475 0.041341 0.16743 0.053743 0.08475 0.010335 0.15503 0.010335 0.07235 0 0.13229-0.010335 0.05994-0.012402 0.10749-0.033073v-1.0439h-0.3638v-0.18397h1.2547z"/>
    <path d="m46.517-6.0328q0-0.051676-0.03307-0.078548t-0.08475-0.026872q-0.07235 0-0.13849 0.033073-0.06408 0.033073-0.11369 0.097151-0.04961 0.064078-0.07855 0.15916-0.02894 0.093017-0.02894 0.21704 0 0.11989 0.01654 0.19844 0.0186 0.078548 0.04754 0.12609 0.03101 0.045475 0.07028 0.064078t0.08268 0.018603q0.05374 0 0.10128-0.026872 0.04754-0.028938 0.08268-0.072346t0.05581-0.097151 0.02067-0.10749zm-0.32866-0.90536q-0.07028 0-0.13022 0.016536-0.05994 0.016536-0.10335 0.041341-0.04341 0.024805-0.06821 0.05581-0.0248 0.028939-0.0248 0.05581 0 0.031006 0.03101 0.045475 0.03307 0.012402 0.07235 0.031006 0.03927 0.016536 0.07028 0.049609 0.03307 0.031006 0.03307 0.097151 0 0.043408-0.0186 0.080615-0.01654 0.03514-0.04754 0.064078-0.02894 0.026872-0.07028 0.043408-0.03927 0.014469-0.08268 0.014469-0.11576 0-0.1881-0.078547-0.07028-0.078548-0.07028-0.20877 0-0.12609 0.06614-0.21497 0.06614-0.09095 0.17156-0.14883 0.10749-0.057877 0.24184-0.084749 0.13436-0.028939 0.26872-0.028939 0.16123 0 0.30799 0.03514 0.14676 0.03514 0.25838 0.11162 0.11369 0.07648 0.17983 0.1943 0.06821 0.11782 0.06821 0.28525v1.1679q0 0.018603 0.0021 0.041341 0.0021 0.022737 0.01033 0.041341 0.0083 0.018603 0.0248 0.031006 0.01654 0.012402 0.04754 0.012402 0.03721 0 0.06821-0.026871 0.03307-0.028939 0.05788-0.057877l0.05168 0.043408q-0.03101 0.043408-0.07441 0.095084-0.04341 0.051676-0.10542 0.097151-0.06201 0.045475-0.14469 0.076481-0.08268 0.031006-0.1881 0.031006-0.13022 0-0.23151-0.07648-0.10128-0.078547-0.13229-0.23978-0.06614 0.088883-0.13849 0.14883-0.07028 0.059944-0.14469 0.097151-0.07441 0.037207-0.15089 0.053743-0.07441 0.016536-0.15089 0.016536-0.09922 0-0.19224-0.031006-0.09302-0.031006-0.16743-0.097151-0.07235-0.068212-0.11782-0.1757-0.04341-0.10749-0.04341-0.26251 0-0.1881 0.07441-0.30799 0.07441-0.11989 0.1943-0.2005 0.12196-0.082682 0.27492-0.14056 0.15503-0.057877 0.31626-0.12196 0.11989-0.047542 0.17363-0.14056 0.05581-0.095084 0.05581-0.1943 0-0.15296-0.09095-0.24391-0.08888-0.093017-0.24391-0.093017z"/>
    <path d="m48.91-5.9914q0-0.26045-0.02481-0.41548-0.02274-0.1571-0.06201-0.23771-0.03927-0.082682-0.08682-0.10749-0.04754-0.026872-0.09715-0.026872-0.05994 0-0.10749 0.033073-0.04548 0.031006-0.08061 0.072346-0.03307 0.041341-0.05788 0.082682-0.02274 0.041341-0.03927 0.062011v1.3808q0 0.026872-0.0083 0.066145-0.0083 0.037207-0.04134 0.072346-0.03101 0.033073-0.09508 0.05581-0.06201 0.024804-0.17156 0.024804-0.10955 0-0.17363-0.026871-0.06201-0.024805-0.09508-0.059944-0.03307-0.03514-0.04134-0.072346-0.0083-0.037207-0.0083-0.059944v-1.5958q0-0.059944-0.02894-0.10335-0.02687-0.045475-0.09302-0.045475-0.03514 0-0.05994 0.012402t-0.05374 0.03514l-0.04341-0.051676q0.04754-0.039274 0.10542-0.076481 0.05994-0.039274 0.12816-0.068212 0.06821-0.028939 0.14676-0.047542t0.16536-0.018603q0.13436 0 0.20877 0.045475 0.07441 0.043408 0.10955 0.10542 0.03514 0.062011 0.04134 0.13022 0.0083 0.066145 0.0083 0.11162 0.07648-0.10955 0.17363-0.19637 0.03927-0.037207 0.08682-0.072346 0.04961-0.03514 0.10335-0.062011 0.05581-0.028939 0.11575-0.045475 0.06201-0.016536 0.12609-0.016536 0.14056 0 0.24804 0.053743 0.10955 0.053743 0.18397 0.17983 0.07441 0.12609 0.11369 0.33486 0.03927 0.2067 0.03927 0.51469 0 0.29972-0.05374 0.52089t-0.14056 0.3762q-0.08682 0.15503-0.19637 0.25218-0.10955 0.099218-0.22117 0.15503-0.11162 0.05581-0.21497 0.07648-0.10128 0.022738-0.1757 0.024805l-0.02274-0.084749q0.06201-0.014469 0.11369-0.045475 0.05374-0.031006 0.09715-0.09095t0.07648-0.15089q0.03307-0.093017 0.05581-0.23151 0.0248-0.13849 0.03514-0.32659 0.0124-0.19017 0.0124-0.44235z"/>
    <path d="m50.903-6.0328q0-0.051676-0.03307-0.078548t-0.08475-0.026872q-0.07235 0-0.13849 0.033073-0.06408 0.033073-0.11369 0.097151-0.04961 0.064078-0.07855 0.15916-0.02894 0.093017-0.02894 0.21704 0 0.11989 0.01654 0.19844 0.0186 0.078548 0.04754 0.12609 0.03101 0.045475 0.07028 0.064078t0.08268 0.018603q0.05374 0 0.10128-0.026872 0.04754-0.028938 0.08268-0.072346t0.05581-0.097151 0.02067-0.10749zm-0.32866-0.90536q-0.07028 0-0.13022 0.016536-0.05994 0.016536-0.10335 0.041341-0.04341 0.024805-0.06821 0.05581-0.02481 0.028939-0.02481 0.05581 0 0.031006 0.03101 0.045475 0.03307 0.012402 0.07235 0.031006 0.03927 0.016536 0.07028 0.049609 0.03307 0.031006 0.03307 0.097151 0 0.043408-0.0186 0.080615-0.01654 0.03514-0.04754 0.064078-0.02894 0.026872-0.07028 0.043408-0.03927 0.014469-0.08268 0.014469-0.11575 0-0.1881-0.078547-0.07028-0.078548-0.07028-0.20877 0-0.12609 0.06614-0.21497 0.06614-0.09095 0.17156-0.14883 0.10749-0.057877 0.24184-0.084749 0.13436-0.028939 0.26872-0.028939 0.16123 0 0.30799 0.03514t0.25838 0.11162q0.11369 0.07648 0.17983 0.1943 0.06821 0.11782 0.06821 0.28525v1.1679q0 0.018603 0.0021 0.041341 0.0021 0.022737 0.01034 0.041341 0.0083 0.018603 0.02481 0.031006 0.01654 0.012402 0.04754 0.012402 0.03721 0 0.06821-0.026871 0.03307-0.028939 0.05788-0.057877l0.05168 0.043408q-0.03101 0.043408-0.07441 0.095084-0.04341 0.051676-0.10542 0.097151-0.06201 0.045475-0.14469 0.076481-0.08268 0.031006-0.1881 0.031006-0.13022 0-0.23151-0.07648-0.10128-0.078547-0.13229-0.23978-0.06615 0.088883-0.13849 0.14883-0.07028 0.059944-0.14469 0.097151-0.07441 0.037207-0.15089 0.053743-0.07441 0.016536-0.15089 0.016536-0.09922 0-0.19224-0.031006-0.09302-0.031006-0.16743-0.097151-0.07235-0.068212-0.11782-0.1757-0.04341-0.10749-0.04341-0.26251 0-0.1881 0.07441-0.30799 0.07441-0.11989 0.1943-0.2005 0.12196-0.082682 0.27492-0.14056 0.15503-0.057877 0.31626-0.12196 0.11989-0.047542 0.17363-0.14056 0.05581-0.095084 0.05581-0.1943 0-0.15296-0.09095-0.24391-0.08888-0.093017-0.24391-0.093017z"/>
    <path d="m53.228-6.0845q0-0.022737 0-0.09095 0-0.070279-0.0041-0.15916-0.0041-0.09095-0.01447-0.19223-0.01034-0.10129-0.03307-0.1881-0.04961-0.064078-0.11162-0.11369-0.05994-0.051676-0.15503-0.051676-0.16123 0-0.23771 0.21084-0.07441 0.21084-0.07441 0.65318 0 0.1943 0.01654 0.35553 0.0186 0.16123 0.05374 0.27698 0.03721 0.11575 0.09302 0.17983 0.05788 0.064078 0.13642 0.064078 0.33073 0 0.33073-0.94464zm-0.0248-0.9095q-0.03927-0.2067-0.10955-0.38447-0.07028-0.17983-0.1695-0.31006-0.09715-0.13022-0.22324-0.20464-0.12402-0.074414-0.26872-0.074414-0.08268 0-0.15089 0.02067-0.06614 0.02067-0.11575 0.049609-0.04961 0.026872-0.08268 0.053743-0.03101 0.024805-0.04547 0.037207l-0.05374-0.072346q0.04961-0.064078 0.11989-0.11989 0.07235-0.05581 0.1571-0.095084 0.08475-0.039274 0.17777-0.062011 0.09508-0.022737 0.1881-0.022737 0.30592 0 0.53743 0.13436 0.23151 0.13229 0.38654 0.3762 0.15503 0.24391 0.23358 0.58911 0.07855 0.3452 0.07855 0.76687 0 0.34106-0.07028 0.59944-0.06821 0.25838-0.19637 0.43408-0.12816 0.17363-0.31212 0.26251-0.1819 0.086816-0.41134 0.086816-0.15916 0-0.32452-0.05581-0.1633-0.057877-0.29765-0.18603-0.13229-0.12816-0.21704-0.33486-0.08475-0.20877-0.08475-0.51056 0-0.26045 0.07235-0.46302 0.07441-0.20257 0.19844-0.34106 0.12402-0.14056 0.28732-0.21291 0.1633-0.074414 0.3452-0.074414 0.07028 0 0.12609 0.012402 0.05581 0.010335 0.09715 0.026871t0.07235 0.037207q0.031 0.018603 0.05581 0.037207z"/>
    <path d="m54.125-6.0204q0-0.27078 0.07855-0.47335 0.07855-0.20464 0.20877-0.34106 0.13229-0.13642 0.30592-0.20464 0.17363-0.068212 0.3638-0.068212 0.19017 0 0.3638 0.064078 0.17363 0.062011 0.30386 0.19223 0.13229 0.13022 0.21084 0.33073 0.07855 0.19844 0.07855 0.47129 0 0.27078-0.07855 0.47955t-0.21084 0.3514q-0.13022 0.14263-0.30386 0.21704-0.17363 0.072346-0.3638 0.072346-0.19017 0-0.3638-0.068212-0.17363-0.070279-0.30592-0.2067-0.13022-0.13642-0.20877-0.34106-0.07855-0.20464-0.07855-0.47542zm1.2712-0.02067q0-0.16536-0.0124-0.31832-0.01034-0.15503-0.04341-0.27492t-0.09508-0.19017q-0.06201-0.072346-0.1633-0.072346-0.10128 0-0.1633 0.07648-0.06201 0.074414-0.09508 0.19844-0.03307 0.12196-0.04341 0.27905t-0.01034 0.32246 0.01034 0.32453q0.01033 0.1571 0.04341 0.28112 0.03307 0.12402 0.09508 0.2005 0.06201 0.074414 0.1633 0.074414 0.10128 0 0.1633-0.078548 0.06201-0.078548 0.09508-0.2067 0.03307-0.12816 0.04341-0.28939 0.0124-0.16123 0.0124-0.32659z"/>
    <path d="m57.085-6.6715q0.07855-0.11989 0.16743-0.21704 0.03721-0.041341 0.08062-0.080615t0.08888-0.070279q0.04754-0.031006 0.09715-0.049609t0.09922-0.018603q0.10542 0 0.16536 0.064078 0.05994 0.062011 0.05994 0.1757 0 0.070279-0.0124 0.13642-0.01034 0.064078-0.04341 0.1571h-0.05788q-0.0124-0.064078-0.05788-0.10542-0.04548-0.043408-0.13229-0.043408-0.06408 0-0.12609 0.024804-0.06201 0.022737-0.12196 0.057877-0.05788 0.03514-0.11162 0.07648-0.05168 0.041341-0.09508 0.078548v1.3415q0 0.026872-0.0083 0.064078-0.0083 0.037207-0.04134 0.070279-0.03101 0.033073-0.09508 0.05581-0.06201 0.024804-0.17156 0.024804-0.10955 0-0.17363-0.026871-0.06201-0.024805-0.09508-0.059944-0.03307-0.03514-0.04134-0.072346-0.0083-0.037207-0.0083-0.059944v-1.5958q0-0.059944-0.02894-0.10335-0.02687-0.045475-0.09302-0.045475-0.03514 0-0.05994 0.012402t-0.05374 0.03514l-0.04341-0.051676q0.04754-0.039274 0.10542-0.076481 0.05994-0.039274 0.12816-0.068212 0.06821-0.028939 0.14676-0.047542t0.16536-0.018603q0.08888 0 0.15089 0.024805 0.06408 0.022737 0.10335 0.062011 0.04134 0.037207 0.06408 0.084749t0.03307 0.097151q0.0124 0.047542 0.01447 0.093017 0.0021 0.043408 0.0021 0.074413z"/>
   </g>
  </g>
 </g>
</svg>
